<?xml version="1.0" encoding="UTF-8"?>
<!-- Created with Inkscape (http://www.inkscape.org/) -->
<svg width="642.52" height="642.52" version="1.1" viewBox="0 0 170 170" xml:space="preserve" xmlns="http://www.w3.org/2000/svg"><path d="m96.383 8.5005c-16.043 2.8e-5 -29.049 13.006-29.049 29.049 0.02852 11.842 7.2425 22.481 18.233 26.89-6.5348 0.86054-12.872 2.488-18.828 4.7672-2.5978-2.8611-5.7865-5.0794-9.7152-6.1257-6.1189-1.6296-13.203-1.4743-25.321-1.4743h-28.175v91.819h28.175c12.099 0 18.948 0.21244 22.1 1.0521 3.153 0.8397 3.4283 1.2655 5.9278 5.5934l0.82527 1.4283h9.1762l0.82476-1.4283c2.4995-4.328 2.7754-4.7538 5.9283-5.5934 3.1529-0.8397 10-1.0521 22.1-1.0521h28.178v-50.926c3.7342-2.1625 6.2498-6.1982 6.2498-10.82 0-6.8991-5.6005-12.498-12.502-12.498-6.9011 0-12.502 5.5994-12.502 12.498 0 4.5213 2.5156 8.5909 6.2498 10.787v38.461h-15.674c-12.118 0-19.199-0.15837-25.318 1.4712-0.64844 0.17269-1.2629 0.39812-1.8707 0.63355v-30.765c3.7345-2.1624 6.2503-6.198 6.2503-10.82 0-6.8991-5.601-12.498-12.502-12.498-6.9011 0-12.502 5.5993-12.502 12.498 0 4.5224 2.5167 8.5929 6.2523 10.788v30.797c-0.60802-0.23551-1.2224-0.46129-1.8712-0.63407-6.1189-1.6296-13.203-1.4712-25.321-1.4712h-15.673v-66.82h15.673c14.18 0 19.434 0.29445 22.574 1.1824-16.573 10.064-27.922 25.977-27.983 44.891h26.242c-5.44e-4 -1.5954-1e-3 -3.1908-0.0016-4.7863-4.4724-3.9864-6.7977-10.211-6.1185-16.154 0.88295-8.9876 9.1678-16.555 18.197-16.631 6.6735-0.30026 13.239 3.4324 16.676 9.1095 4.7191 7.3838 3.0225 18.001-3.5393 23.734v4.7274h30.154l-2e-3 -14.56c-4.4724-3.9727-6.7994-10.189-6.1164-16.123 0.86264-8.9855 9.1319-16.565 18.158-16.655 6.6786-0.31136 13.259 3.4117 16.704 9.0925 4.7264 7.384 3.0371 18.011-3.5305 23.747v14.497h33.357c-8e-3 -27.791-25.094-51.449-59.152-55.786 10.927-4.4413 18.084-15.049 18.111-26.845-3e-5 -16.043-13.006-29.049-29.049-29.049z" fill="#3c8f49" stroke-linejoin="round" stroke-miterlimit="8" stroke-width=".265" style="paint-order:markers fill stroke"/></svg>
